<svg xmlns="http://www.w3.org/2000/svg" viewBox="0 0 24 24">
    <path fill="#fff" d="M19.43 12.98c.04-.32.07-.64.07-.98s-.03-.66-.07-.98l2.11-1.65c.19-.15.24-.42.12-.64l-2-3.46c-.12-.22-.39-.3-.61-.22l-2.49 1c-.52-.39-1.09-.69-1.7-.93L14 2.32c-.06-.25-.28-.42-.54-.42h-4c-.26 0-.48.17-.54.42l-.35 2.56c-.61.24-1.18.54-1.7.93l-2.49-1c-.22-.08-.49 0-.61.22l-2 3.46c-.12.22-.07.49.12.64l2.11 1.65c-.04.32-.07.64-.07.98s.03.66.07.98l-2.11 1.65c-.19.15-.24.42-.12.64l2 3.46c.12.22.39.3.61.22l2.49-1c.52.39 1.09.69 1.7.93l.35 2.56c.06.25.28.42.54.42h4c.26 0 .48-.17.54-.42l.35-2.56c.61-.24 1.18-.54 1.7-.93l2.49 1c.22.08.49 0 .61-.22l2-3.46c.12-.22.07-.49-.12-.64l-2.11-1.65zm-7.43 3.52c-2.48 0-4.5-2.02-4.5-4.5s2.02-4.5 4.5-4.5 4.5 2.02 4.5 4.5-2.02 4.5-4.5 4.5z"/>
</svg>